<svg width="29" height="29" viewBox="0 0 29 29" fill="none" xmlns="http://www.w3.org/2000/svg">
<g clip-path="url(#clip0)">
<path d="M26.7445 8.14932C26.6038 7.58705 26.3171 7.07187 25.9136 6.65582C25.51 6.23977 25.0038 5.93759 24.4461 5.7798C22.4083 5.2822 14.2571 5.2822 14.2571 5.2822C14.2571 5.2822 6.10596 5.2822 4.06817 5.82719C3.51044 5.98498 3.00422 6.28716 2.60066 6.70321C2.19709 7.11926 1.91046 7.63444 1.76973 8.19671C1.39678 10.2648 1.21435 12.3627 1.22474 14.4641C1.21144 16.5813 1.39388 18.6952 1.76973 20.7789C1.92488 21.3237 2.21793 21.8193 2.62056 22.2178C3.02318 22.6162 3.52178 22.9041 4.06817 23.0536C6.10596 23.5986 14.2571 23.5986 14.2571 23.5986C14.2571 23.5986 22.4083 23.5986 24.4461 23.0536C25.0038 22.8958 25.51 22.5937 25.9136 22.1776C26.3171 21.7616 26.6038 21.2464 26.7445 20.6841C27.1146 18.6316 27.297 16.5497 27.2895 14.4641C27.3028 12.3469 27.1203 10.233 26.7445 8.14932V8.14932Z" stroke="#253858" stroke-width="2.36952" stroke-linecap="round" stroke-linejoin="round"/>
<path d="M11.5914 18.3382L18.4037 14.4641L11.5914 10.5899V18.3382Z" stroke="#253858" stroke-width="2.36952" stroke-linecap="round" stroke-linejoin="round"/>
</g>
<defs>
<clipPath id="clip0">
<rect width="28.4343" height="28.4343" fill="white" transform="translate(0.0399475 0.543152)"/>
</clipPath>
</defs>
</svg>
